<svg xmlns="http://www.w3.org/2000/svg" viewBox="0 0 32 32"><defs><style>.cls-1{fill:#30acc2;}.cls-2{fill:#68c7d3;}.cls-3{fill:#a1d8df;}.cls-4{fill:#d1e6e9;}</style></defs><title>Headphone Relaxation</title><g id="Headphone_Relaxation" data-name="Headphone Relaxation"><path class="cls-1" d="M30,21H27V15A11,11,0,0,0,5,15v6H2V15C2,2.6,17.08-3.69,25.9,5.1,30.66,9.88,30,14.7,30,21Z"/><rect class="cls-2" x="25" y="17" width="4" height="14" rx="1"/><path class="cls-3" d="M29,19h1a1,1,0,0,1,1,1v8a1,1,0,0,1-1,1H29a0,0,0,0,1,0,0V19A0,0,0,0,1,29,19Z"/><rect class="cls-2" x="3" y="17" width="4" height="14" rx="1" transform="translate(10 48) rotate(-180)"/><path class="cls-3" d="M1,19H2a1,1,0,0,1,1,1v8a1,1,0,0,1-1,1H1a0,0,0,0,1,0,0V19A0,0,0,0,1,1,19Z" transform="translate(4 48) rotate(-180)"/><path class="cls-4" d="M14.77,22.23c2.12,2.12,1.41,5.66,1.41,5.66s-3.53.7-5.65-1.42-1.42-5.65-1.42-5.65S12.65,20.11,14.77,22.23Z"/><path class="cls-4" d="M17.23,22.23c-2.12,2.12-1.41,5.66-1.41,5.66s3.53.7,5.65-1.42,1.42-5.65,1.42-5.65S19.35,20.11,17.23,22.23Z"/><path class="cls-3" d="M19,23c0,3-3,5-3,5s-3-2-3-5,3-5,3-5S19,20,19,23Z"/></g></svg>